<svg version="1.2" baseProfile="tiny-ps" xmlns="http://www.w3.org/2000/svg" width="1024" height="1024" viewBox="0 0 1024 1024">
<title>bounteer.com</title>
<g>
<path d="M 585.70 781.12 C572.34,783.94 531.74,784.75 517.50,782.48 C471.79,775.18 434.99,760.78 398.50,735.92 C361.33,710.60 335.27,681.65 317.98,646.50 C300.92,611.83 295.54,583.07 294.01,518.50 C292.31,446.66 291.47,432.72 288.38,424.99 C286.43,420.13 279.16,413.39 272.21,410.00 C269.39,408.62 267.06,407.12 267.04,406.65 C266.90,403.73 323.45,324.12 324.74,325.41 C324.92,325.59 323.93,331.31 322.54,338.12 C320.00,350.56 316.19,381.52 317.08,382.41 C317.35,382.68 321.37,381.77 326.03,380.39 C338.45,376.72 374.95,367.49 386.50,365.09 C435.84,354.84 481.24,357.93 511.00,373.57 C519.77,378.18 531.22,388.64 535.19,395.68 C538.65,401.81 538.74,401.84 552.00,399.50 C562.62,397.63 575.10,397.64 585.50,399.52 C597.50,401.68 598.67,401.55 600.61,397.75 C609.71,379.98 635.17,365.98 665.81,361.90 C678.48,360.22 710.61,361.30 725.00,363.89 C747.38,367.93 780.95,377.16 788.29,381.28 C797.30,386.35 797.01,395.90 787.58,404.96 C783.10,409.25 782.01,413.07 782.00,424.50 C781.99,437.12 778.70,458.02 774.97,469.30 C773.23,474.54 769.58,482.80 766.86,487.65 L 761.92 496.47 L 760.49 513.98 C759.70,523.62 758.36,540.50 757.51,551.50 C755.59,576.27 754.36,586.69 751.84,599.50 C744.62,636.14 729.68,669.14 706.11,700.50 C697.66,711.74 676.22,733.72 665.25,742.36 C639.83,762.42 613.48,775.25 585.70,781.12 ZM 470.07 1024.00 L 17.79 1024.00 L 19.44 1014.75 C24.85,984.31 30.33,960.13 35.60,943.50 C42.29,922.37 57.25,897.47 72.71,881.76 C82.22,872.10 85.82,870.37 166.50,836.53 C185.75,828.46 215.90,815.75 233.50,808.29 L 265.50 794.73 L 282.54 777.62 C291.91,768.20 304.90,754.20 311.41,746.50 C321.98,734.00 329.57,726.06 331.00,726.01 C331.27,726.00 331.35,729.85 331.17,734.57 C330.30,757.50 336.51,771.81 389.65,869.27 C411.11,908.62 432.40,949.20 451.56,987.25 L 470.07 1024.00 ZM 804.28 294.13 C801.78,296.81 799.39,299.00 798.98,299.00 C798.58,299.00 797.65,297.58 796.93,295.84 C794.43,289.80 786.01,277.97 779.77,271.74 C748.87,240.87 689.90,229.57 548.18,227.38 C474.90,226.24 407.83,230.78 362.37,239.96 C332.14,246.06 300.25,256.44 277.09,267.73 C264.65,273.79 263.01,274.93 254.55,283.38 C249.54,288.40 244.48,293.85 243.31,295.50 L 241.20 298.50 L 236.68 294.12 C234.17,291.69 230.89,287.01 229.33,283.62 C226.82,278.19 226.50,276.37 226.50,267.50 C226.50,258.39 226.78,256.92 229.60,250.95 C231.31,247.35 234.16,242.74 235.95,240.71 L 239.19 237.02 L 236.84 232.26 C233.41,225.29 232.99,211.61 235.98,204.04 C243.95,183.85 267.48,168.47 314.05,153.01 C358.81,138.15 398.81,130.71 465.00,124.93 C484.57,123.22 558.43,122.58 582.00,123.91 C641.84,127.29 688.12,135.67 734.54,151.51 C762.27,160.98 774.02,166.62 787.54,176.94 C802.81,188.62 809.26,198.93 809.75,212.50 C810.00,219.44 809.66,221.43 807.15,227.50 L 804.25 234.50 L 807.14 238.16 C819.98,254.43 818.74,278.67 804.28,294.13 ZM 1005.57 1024.00 L 666.27 1024.00 L 665.72 984.75 C665.20,947.37 663.92,924.19 660.42,888.50 C659.47,878.87 659.10,869.31 659.48,864.50 C661.15,843.48 654.18,775.14 648.98,761.44 C646.81,755.74 651.21,759.17 671.50,778.97 C693.02,799.98 691.15,799.06 749.06,817.51 C765.80,822.85 779.88,827.44 780.34,827.72 C780.80,828.00 795.65,833.08 813.34,839.02 C887.34,863.85 897.90,868.36 911.02,880.70 C925.40,894.22 936.69,911.27 951.96,942.50 C962.39,963.83 983.70,1012.79 986.44,1021.75 C987.13,1023.98 987.32,1024.00 1005.57,1024.00 ZM 395.41 614.05 C398.76,615.04 402.51,615.88 403.75,615.92 C407.07,616.04 409.78,612.72 410.39,607.82 C414.44,574.82 417.12,567.56 427.20,562.34 C435.28,558.15 447.57,558.05 482.00,561.87 C514.49,565.48 535.53,567.30 539.54,566.83 C542.06,566.54 541.54,566.14 535.46,563.69 C526.64,560.12 518.25,554.64 516.82,551.51 C515.94,549.58 516.06,548.56 517.38,546.54 C519.48,543.34 520.34,543.36 529.22,546.89 C556.31,557.63 584.96,560.13 599.00,552.97 C614.14,545.25 614.65,530.53 601.53,481.00 C596.02,460.20 593.99,448.77 593.21,434.03 L 592.50 420.50 L 588.21 418.33 C578.06,413.21 560.29,413.18 550.00,418.27 L 545.50 420.50 L 545.26 426.50 C544.47,446.15 540.43,467.08 534.93,480.00 C521.18,512.31 496.54,530.84 460.50,535.97 C449.87,537.48 427.23,537.23 419.07,535.52 C381.76,527.67 355.15,497.45 347.44,454.17 C346.59,449.40 345.62,437.92 345.29,428.66 C344.79,414.64 344.43,411.72 343.12,411.21 C341.85,410.73 315.98,414.54 315.43,415.29 C315.22,415.58 316.71,449.52 318.01,474.00 C320.26,516.39 326.05,547.19 335.21,565.46 C346.35,587.69 369.53,606.40 395.41,614.05 ZM 428.54 518.89 C442.82,520.97 459.92,519.48 473.50,514.97 C485.06,511.13 491.35,507.48 499.47,499.88 C516.33,484.11 525.22,461.91 525.26,435.50 C525.28,422.75 523.47,414.86 518.71,407.00 C505.84,385.72 478.30,374.99 440.00,376.35 C393.51,378.00 371.85,389.97 364.45,418.08 C362.08,427.10 362.97,444.94 366.47,458.50 C375.35,492.90 397.40,514.35 428.54,518.89 ZM 672.07 518.97 C678.60,520.33 699.52,519.50 706.33,517.61 C732.10,510.43 751.31,489.13 759.65,458.50 C762.08,449.58 762.38,446.72 762.44,432.00 C762.50,415.52 762.50,415.49 759.36,408.88 C750.57,390.32 731.69,380.75 698.52,378.04 C662.28,375.09 634.18,384.55 620.60,404.29 C605.13,426.78 610.27,470.72 631.34,496.12 C640.57,507.25 655.17,515.44 672.07,518.97 ZM 505.00 705.43 C512.93,707.50 519.29,707.39 522.09,705.13 C524.37,703.28 524.38,703.20 522.81,697.88 C521.94,694.92 520.23,689.80 519.01,686.50 C515.74,677.61 515.40,671.26 517.96,667.19 C521.49,661.58 525.11,660.73 539.81,662.09 C553.14,663.32 581.43,662.75 594.92,660.98 C601.95,660.06 602.57,660.14 606.66,662.54 C614.30,667.02 614.01,674.10 605.64,688.13 C602.54,693.33 600.00,698.57 600.00,699.77 C600.00,702.99 604.24,705.39 608.65,704.67 C616.85,703.34 632.12,690.69 641.65,677.35 C652.21,662.54 660.36,639.83 664.00,615.07 C666.45,598.34 666.51,595.13 664.37,594.31 C663.46,593.96 658.29,595.55 652.62,597.93 C607.12,617.02 572.93,621.02 524.50,612.95 C497.49,608.45 477.85,603.21 460.65,595.91 C453.22,592.76 450.07,592.33 448.20,594.20 C446.40,596.00 446.74,606.96 449.07,622.49 C453.60,652.59 461.74,671.73 477.05,688.25 C485.45,697.31 493.97,702.55 505.00,705.43 ZM 377.61 358.35 C370.85,362.96 368.00,361.51 368.00,353.46 C368.00,345.69 372.65,337.18 381.92,328.00 C390.63,319.38 397.57,315.01 409.82,310.42 C421.99,305.86 432.43,303.88 447.50,303.29 C463.48,302.66 478.55,304.59 492.57,309.06 C512.81,315.52 522.75,321.84 527.41,331.20 C532.48,341.37 530.11,351.23 521.58,355.41 C516.95,357.68 512.76,357.23 485.58,351.58 C462.46,346.77 451.70,345.64 429.50,345.69 C415.79,345.72 408.42,346.18 403.04,347.35 C395.25,349.05 384.27,353.80 377.61,358.35 ZM 695.45 605.53 C696.25,607.44 697.61,609.00 698.49,609.00 C701.39,609.00 707.42,605.25 713.71,599.55 C730.83,583.99 742.85,555.38 745.58,523.66 L 746.25 515.82 L 739.92 520.48 C732.11,526.23 719.57,532.34 711.22,534.47 C691.22,539.57 664.77,537.54 646.65,529.52 C640.33,526.73 631.02,520.72 625.47,515.84 L 622.01 512.80 L 622.53 515.65 C622.81,517.22 623.71,522.10 624.52,526.50 C626.41,536.70 626.38,541.34 624.42,547.94 C622.50,554.41 616.26,560.99 607.50,565.78 L 601.50 569.07 L 608.50 568.49 C619.43,567.60 630.70,566.10 654.50,562.36 C666.74,560.43 677.93,559.16 679.72,559.49 C684.22,560.31 688.57,564.30 690.43,569.28 C692.11,573.82 693.98,588.19 693.99,596.78 C694.00,599.69 694.65,603.62 695.45,605.53 ZM 638.60 354.52 C627.47,357.31 624.55,357.51 621.10,355.74 C613.85,352.01 612.32,341.69 617.59,332.01 C621.04,325.66 625.37,322.26 637.50,316.41 C652.19,309.31 662.18,306.84 678.51,306.26 C695.03,305.67 701.07,306.84 713.75,313.05 C729.26,320.66 742.00,336.50 742.00,348.20 C742.00,351.30 741.39,354.45 740.58,355.56 C739.19,357.45 738.97,357.43 729.66,354.26 C713.84,348.88 704.38,347.70 682.00,348.33 C662.38,348.87 659.51,349.28 638.60,354.52 ZM 583.50 647.49 C574.50,648.84 556.21,649.26 547.00,648.33 C525.25,646.12 505.52,640.00 489.28,630.40 C475.65,622.35 466.21,613.07 467.50,609.00 C468.44,606.03 471.08,606.52 481.02,611.51 C509.48,625.81 537.46,631.80 570.50,630.68 C595.66,629.82 609.62,626.39 633.34,615.24 C644.11,610.18 646.50,610.23 646.50,615.56 C646.50,622.11 621.42,637.98 602.50,643.40 C597.55,644.82 589.00,646.66 583.50,647.49 ZM 466.40 462.94 C459.68,466.30 449.32,466.74 442.33,463.97 C431.95,459.86 425.04,450.28 424.23,438.88 C423.53,429.16 425.88,422.96 432.91,415.95 C439.38,409.50 444.71,407.47 455.00,407.55 C462.80,407.61 469.88,410.82 474.98,416.63 C487.86,431.30 483.58,454.36 466.40,462.94 ZM 673.84 463.96 C665.09,467.82 657.71,467.42 648.13,462.56 C642.83,459.88 639.11,456.01 635.71,449.62 C633.96,446.32 633.52,443.81 633.51,437.00 C633.50,429.33 633.80,427.96 636.60,423.00 C642.32,412.86 653.27,407.20 665.11,408.28 C675.13,409.18 683.18,414.92 688.61,425.00 C690.05,427.68 690.49,430.60 690.50,437.50 C690.50,445.46 690.19,447.02 687.84,451.00 C684.26,457.04 679.48,461.47 673.84,463.96 Z" fill="rgb(36,31,22)"/>
<path d="M 786.18 380.26 C775.91,375.78 745.68,367.63 725.00,363.89 C710.61,361.30 678.48,360.22 665.81,361.90 C635.17,365.98 609.71,379.98 600.61,397.75 C598.67,401.55 597.50,401.68 585.50,399.52 C575.10,397.64 562.62,397.63 552.00,399.50 C538.74,401.84 538.65,401.81 535.19,395.68 C531.22,388.64 519.77,378.18 511.00,373.57 C481.24,357.93 435.84,354.84 386.50,365.09 C374.95,367.49 338.45,376.72 326.03,380.39 C321.37,381.77 317.35,382.68 317.08,382.41 C316.19,381.52 320.00,350.56 322.54,338.12 C323.93,331.31 324.92,325.59 324.74,325.41 C323.45,324.12 266.90,403.73 267.04,406.65 C267.06,407.12 269.39,408.62 272.21,410.00 C279.16,413.39 286.43,420.13 288.38,424.99 C291.47,432.72 292.31,446.66 294.01,518.50 C294.66,546.11 296.02,567.17 298.70,584.94 C298.22,581.91 297.81,578.85 297.44,575.74 C297.07,572.57 296.42,569.76 295.99,569.49 C295.56,569.23 293.31,569.69 290.98,570.51 C284.03,572.96 271.30,572.47 263.28,569.45 C253.72,565.85 248.43,562.54 241.18,555.60 C227.62,542.62 219.83,524.51 216.96,499.24 L 215.79 488.97 L 220.06 481.74 C225.06,473.26 241.93,445.72 246.55,438.50 C248.31,435.75 252.73,428.87 256.36,423.22 C260.00,417.57 263.61,411.71 264.39,410.21 C269.63,400.08 317.61,332.35 325.81,323.50 C326.83,322.40 330.53,317.90 334.03,313.50 C350.93,292.27 367.39,277.34 385.00,267.25 C405.75,255.36 432.23,253.28 469.98,260.57 C484.24,263.32 487.50,264.25 520.83,275.13 C552.90,285.60 560.09,287.30 572.50,287.34 C584.42,287.39 591.66,285.76 610.18,278.86 C657.59,261.20 677.33,256.04 697.50,256.04 C714.69,256.03 734.88,263.55 746.71,274.37 C763.52,289.73 770.00,312.32 770.00,355.53 L 770.00 374.68 L 776.25 376.50 C780.18,377.65 783.49,378.89 786.18,380.26 ZM 395.41 614.05 C369.53,606.40 346.35,587.69 335.21,565.46 C326.05,547.19 320.26,516.39 318.01,474.00 C316.71,449.52 315.22,415.58 315.43,415.29 C315.98,414.54 341.85,410.73 343.12,411.21 C344.43,411.72 344.79,414.64 345.29,428.66 C345.62,437.92 346.59,449.40 347.44,454.17 C355.15,497.45 381.76,527.67 419.07,535.52 C427.23,537.23 449.87,537.48 460.50,535.97 C496.54,530.84 521.18,512.31 534.93,480.00 C540.43,467.08 544.47,446.15 545.26,426.50 L 545.50 420.50 L 550.00 418.27 C560.29,413.18 578.06,413.21 588.21,418.33 L 592.50 420.50 L 593.21 434.03 C593.99,448.77 596.02,460.20 601.53,481.00 C614.65,530.53 614.14,545.25 599.00,552.97 C584.96,560.13 556.31,557.63 529.22,546.89 C520.34,543.36 519.48,543.34 517.38,546.54 C516.06,548.56 515.94,549.58 516.82,551.51 C518.25,554.64 526.64,560.12 535.46,563.69 C541.54,566.14 542.06,566.54 539.54,566.83 C535.53,567.30 514.49,565.48 482.00,561.87 C447.57,558.05 435.28,558.15 427.20,562.34 C417.12,567.56 414.44,574.82 410.39,607.82 C409.78,612.72 407.07,616.04 403.75,615.92 C402.51,615.88 398.76,615.04 395.41,614.05 ZM 428.54 518.89 C397.40,514.35 375.35,492.90 366.47,458.50 C362.97,444.94 362.08,427.10 364.45,418.08 C371.85,389.97 393.51,378.00 440.00,376.35 C478.30,374.99 505.84,385.72 518.71,407.00 C523.47,414.86 525.28,422.75 525.26,435.50 C525.22,461.91 516.33,484.11 499.47,499.88 C491.35,507.48 485.06,511.13 473.50,514.97 C459.92,519.48 442.82,520.97 428.54,518.89 ZM 672.07 518.97 C655.17,515.44 640.57,507.25 631.34,496.12 C610.27,470.72 605.13,426.78 620.60,404.29 C634.18,384.55 662.28,375.09 698.52,378.04 C731.69,380.75 750.57,390.32 759.36,408.88 C762.50,415.49 762.50,415.52 762.44,432.00 C762.38,446.72 762.08,449.58 759.65,458.50 C751.31,489.13 732.10,510.43 706.33,517.61 C699.52,519.50 678.60,520.33 672.07,518.97 ZM 505.00 705.43 C493.97,702.55 485.45,697.31 477.05,688.25 C461.74,671.73 453.60,652.59 449.07,622.49 C446.74,606.96 446.40,596.00 448.20,594.20 C450.07,592.33 453.22,592.76 460.65,595.91 C477.85,603.21 497.49,608.45 524.50,612.95 C572.93,621.02 607.12,617.02 652.62,597.93 C658.29,595.55 663.46,593.96 664.37,594.31 C666.51,595.13 666.45,598.34 664.00,615.07 C660.36,639.83 652.21,662.54 641.65,677.35 C632.12,690.69 616.85,703.34 608.65,704.67 C604.24,705.39 600.00,702.99 600.00,699.77 C600.00,698.57 602.54,693.33 605.64,688.13 C614.01,674.10 614.30,667.02 606.66,662.54 C602.57,660.14 601.95,660.06 594.92,660.98 C581.43,662.75 553.14,663.32 539.81,662.09 C525.11,660.73 521.49,661.58 517.96,667.19 C515.40,671.26 515.74,677.61 519.01,686.50 C520.23,689.80 521.94,694.92 522.81,697.88 C524.38,703.20 524.37,703.28 522.09,705.13 C519.29,707.39 512.93,707.50 505.00,705.43 ZM 585.70 781.12 C608.49,776.31 630.32,766.81 651.46,752.47 C649.93,753.53 648.32,754.62 646.64,755.74 C638.79,760.98 634.91,764.30 632.69,767.66 C630.99,770.22 627.18,774.93 624.21,778.14 C619.15,783.60 592.03,805.61 577.18,816.31 C573.51,818.95 570.35,821.54 570.17,822.06 C569.98,822.59 563.73,822.95 555.67,822.88 C541.31,822.77 538.34,822.47 536.45,820.93 C535.87,820.47 523.04,815.84 507.95,810.64 C492.85,805.45 477.35,800.01 473.50,798.56 C424.38,779.96 392.83,761.38 357.17,730.06 L 350.84 724.50 L 351.53 716.50 C351.91,712.10 352.56,706.32 352.98,703.66 L 353.73 698.82 L 345.31 688.66 C334.14,675.17 326.72,663.91 319.09,648.72 C336.37,682.87 362.12,711.13 398.50,735.92 C434.99,760.78 471.79,775.18 517.50,782.48 C531.74,784.75 572.34,783.94 585.70,781.12 ZM 441.19 482.04 C450.16,484.47 460.13,484.04 468.66,480.87 C483.75,475.25 493.97,464.28 498.14,449.23 C502.57,433.28 498.18,417.30 486.08,405.32 C462.75,382.20 423.45,388.07 409.26,416.79 C405.57,424.26 405.50,424.61 405.50,435.95 C405.50,445.91 405.83,448.26 407.88,453.00 C414.55,468.40 425.23,477.72 441.19,482.04 ZM 660.05 479.97 C666.75,481.39 679.76,480.43 686.09,478.07 C696.91,474.02 708.55,462.10 712.54,451.00 C713.43,448.52 714.41,442.84 714.71,438.37 C715.16,431.77 714.86,428.95 713.13,423.37 C709.12,410.49 699.24,399.59 687.34,394.92 C679.62,391.89 665.58,391.16 658.05,393.39 C644.69,397.36 634.89,405.58 628.72,417.98 C625.63,424.20 625.50,424.95 625.50,436.48 L 625.50 448.50 L 629.38 455.76 C635.80,467.77 648.05,477.44 660.05,479.97 ZM 377.61 358.35 C384.27,353.80 395.25,349.05 403.04,347.35 C408.42,346.18 415.79,345.72 429.50,345.69 C451.70,345.64 462.46,346.77 485.58,351.58 C512.76,357.23 516.95,357.68 521.58,355.41 C530.11,351.23 532.48,341.37 527.41,331.20 C522.75,321.84 512.81,315.52 492.57,309.06 C478.55,304.59 463.48,302.66 447.50,303.29 C432.43,303.88 421.99,305.86 409.82,310.42 C397.57,315.01 390.63,319.38 381.92,328.00 C372.65,337.18 368.00,345.69 368.00,353.46 C368.00,361.51 370.85,362.96 377.61,358.35 ZM 695.45 605.53 C694.65,603.62 694.00,599.69 693.99,596.78 C693.98,588.19 692.11,573.82 690.43,569.28 C688.57,564.30 684.22,560.31 679.72,559.49 C677.93,559.16 666.74,560.43 654.50,562.36 C630.70,566.10 619.43,567.60 608.50,568.49 L 601.50 569.07 L 607.50 565.78 C616.26,560.99 622.50,554.41 624.42,547.94 C626.38,541.34 626.41,536.70 624.52,526.50 C623.71,522.10 622.81,517.22 622.53,515.65 L 622.01 512.80 L 625.47 515.84 C631.02,520.72 640.33,526.73 646.65,529.52 C664.77,537.54 691.22,539.57 711.22,534.47 C719.57,532.34 732.11,526.23 739.92,520.48 L 746.25 515.82 L 745.58 523.66 C742.85,555.38 730.83,583.99 713.71,599.55 C707.42,605.25 701.39,609.00 698.49,609.00 C697.61,609.00 696.25,607.44 695.45,605.53 ZM 638.60 354.52 C659.51,349.28 662.38,348.87 682.00,348.33 C704.38,347.70 713.84,348.88 729.66,354.26 C738.97,357.43 739.19,357.45 740.58,355.56 C741.39,354.45 742.00,351.30 742.00,348.20 C742.00,336.50 729.26,320.66 713.75,313.05 C701.07,306.84 695.03,305.67 678.51,306.26 C662.18,306.84 652.19,309.31 637.50,316.41 C625.37,322.26 621.04,325.66 617.59,332.01 C612.32,341.69 613.85,352.01 621.10,355.74 C624.55,357.51 627.47,357.31 638.60,354.52 ZM 583.50 647.49 C589.00,646.66 597.55,644.82 602.50,643.40 C621.42,637.98 646.50,622.11 646.50,615.56 C646.50,610.23 644.11,610.18 633.34,615.24 C609.62,626.39 595.66,629.82 570.50,630.68 C537.46,631.80 509.48,625.81 481.02,611.51 C471.08,606.52 468.44,606.03 467.50,609.00 C466.21,613.07 475.65,622.35 489.28,630.40 C505.52,640.00 525.25,646.12 547.00,648.33 C556.21,649.26 574.50,648.84 583.50,647.49 ZM 754.26 584.99 C755.40,576.68 756.32,566.84 757.51,551.50 C758.36,540.50 759.70,523.62 760.49,513.98 L 761.92 496.47 L 766.86 487.65 C769.58,482.80 773.23,474.54 774.97,469.30 C777.87,460.55 780.49,446.00 781.53,434.02 C781.44,439.10 781.53,443.00 781.86,443.00 C783.10,443.00 785.82,449.45 788.08,457.76 C789.70,463.69 790.32,469.60 790.72,483.01 C791.49,508.08 788.82,523.31 780.87,539.20 C777.31,546.33 767.51,556.92 761.56,560.08 C757.57,562.20 757.00,562.93 756.58,566.48 C755.60,574.72 754.90,580.43 754.26,584.99 ZM 714.28 689.05 C727.83,669.02 738.00,648.24 745.00,626.21 C737.88,648.64 727.58,669.70 714.28,689.05 ZM 678.84 730.16 C684.44,724.74 690.40,718.61 695.57,712.94 C692.35,716.56 689.01,720.11 685.55,723.57 C683.17,725.96 680.95,728.14 678.84,730.16 ZM 794.33 394.81 C795.25,391.65 794.96,388.67 793.47,386.11 C795.15,388.67 795.43,391.56 794.33,394.81 ZM 784.34 409.02 C785.14,407.56 786.20,406.28 787.58,404.96 C787.68,404.87 787.56,405.00 787.45,405.12 C786.07,406.61 785.07,407.84 784.34,409.02 ZM 782.05 420.92 C782.12,418.35 782.29,416.25 782.59,414.45 C782.39,416.18 782.20,418.44 782.05,420.92 Z" fill="rgb(250,160,85)"/>
<path d="M 0.00 0.00 L 1024.00 0.00 L 1024.00 1024.00 L 1005.57 1024.00 C987.32,1024.00 987.13,1023.98 986.44,1021.75 C983.70,1012.79 962.39,963.83 951.96,942.50 C936.69,911.27 925.40,894.22 911.02,880.70 C897.90,868.36 887.34,863.85 813.34,839.02 C795.65,833.08 780.80,828.00 780.34,827.72 C779.89,827.45 766.33,823.02 750.00,817.81 C766.89,823.18 782.33,827.98 782.48,827.81 C783.00,827.20 814.47,730.36 817.34,720.50 C818.15,717.75 820.81,708.97 823.26,701.00 C836.19,659.02 842.59,631.75 846.70,601.16 C849.13,583.11 849.09,531.18 846.64,511.50 C844.46,494.04 841.43,473.55 839.43,462.75 C835.67,442.51 829.94,413.15 829.04,409.50 C828.50,407.30 826.89,399.88 825.46,393.00 C824.02,386.12 821.53,374.65 819.92,367.50 C818.31,360.35 816.29,351.35 815.43,347.50 C812.26,333.27 801.16,300.53 798.98,299.00 L 798.98 299.00 C799.39,299.00 801.78,296.81 804.28,294.13 C818.74,278.67 819.98,254.43 807.14,238.16 L 804.25 234.50 L 807.15 227.50 C809.66,221.43 810.00,219.44 809.75,212.50 C809.26,198.93 802.81,188.62 787.54,176.94 C779.33,170.68 771.78,166.14 760.92,161.42 C765.78,163.38 769.59,164.75 769.76,164.57 C770.91,163.43 745.53,139.36 728.00,124.96 C677.51,83.49 615.03,56.63 550.00,48.43 C543.12,47.56 528.14,46.60 516.70,46.28 C440.60,44.20 381.18,67.44 317.11,124.32 C306.79,133.48 277.13,164.42 276.19,167.01 C276.02,167.47 280.41,165.86 285.94,163.43 C290.70,161.33 297.12,158.88 304.35,156.35 C264.18,170.71 243.37,185.30 235.98,204.04 C232.99,211.61 233.41,225.29 236.84,232.26 L 239.19 237.02 L 235.95 240.71 C234.16,242.74 231.31,247.35 229.60,250.95 C226.78,256.92 226.50,258.39 226.50,267.50 C226.50,276.37 226.82,278.19 229.33,283.62 C230.89,287.01 234.17,291.69 236.68,294.12 L 241.20 298.50 L 243.31 295.50 C243.77,294.85 244.84,293.60 246.28,292.02 C245.36,293.14 244.59,294.14 244.04,294.94 C236.43,306.15 230.22,320.04 212.69,365.00 C210.23,371.33 202.26,391.58 194.98,410.00 C152.32,518.05 132.84,580.06 122.10,642.00 C111.03,705.85 113.69,793.27 128.14,840.50 C129.82,846.00 131.33,850.64 131.49,850.81 C131.65,850.97 143.04,846.33 162.96,838.02 C85.71,870.42 82.08,872.24 72.71,881.76 C57.25,897.47 42.29,922.37 35.60,943.50 C30.33,960.13 24.85,984.31 19.44,1014.75 L 17.79 1024.00 L 0.00 1024.00 ZM 630.22 1024.00 L 520.73 1024.00 L 521.41 1011.25 C522.41,992.49 524.97,956.60 526.46,940.54 L 527.76 926.50 L 506.75 905.36 C491.68,890.20 485.98,883.84 486.57,882.86 C489.74,877.68 519.03,841.71 530.76,828.61 C534.20,824.76 536.67,821.28 536.26,820.86 C536.18,820.79 535.68,820.57 534.81,820.22 C535.77,820.60 536.34,820.84 536.45,820.93 C538.34,822.47 541.31,822.77 555.67,822.88 C563.73,822.95 569.98,822.59 570.17,822.06 C570.18,822.01 570.22,821.95 570.28,821.87 C570.42,822.37 573.01,824.17 576.24,826.00 C587.63,832.45 605.19,852.15 613.03,867.27 L 616.49 873.95 L 604.67 897.72 L 592.84 921.50 L 597.57 932.00 C609.68,958.85 622.37,993.69 628.08,1015.75 ZM 377.48 136.33 C402.01,131.42 427.22,128.23 465.00,124.93 C430.04,127.98 402.39,131.50 377.48,136.33 ZM 749.07 156.67 C744.74,155.06 739.95,153.36 734.54,151.51 C720.23,146.63 705.94,142.46 691.26,138.92 C711.54,143.72 730.71,149.62 749.07,156.67 ZM 697.16 237.31 C661.23,231.47 614.93,228.41 548.18,227.38 C613.75,228.39 661.61,231.36 697.16,237.31 ZM 780.77 272.76 C772.15,264.03 761.36,256.84 748.19,251.09 C761.38,256.73 771.57,263.54 779.77,271.74 C780.10,272.07 780.43,272.41 780.77,272.76 ZM 690.91 795.98 C684.71,792.01 679.88,787.15 671.50,778.97 C680.13,787.40 685.61,792.39 690.91,795.98 ZM 261.13 277.13 C265.00,273.84 268.35,272.00 276.14,268.19 C268.84,271.78 265.09,273.93 261.13,277.13 ZM 744.63 816.10 C733.30,812.49 724.44,809.66 717.29,807.25 C724.50,809.64 734.57,812.89 744.63,816.10 ZM 796.84 295.61 C796.56,295.10 796.27,294.55 795.99,294.00 C795.36,292.74 794.69,291.50 794.00,290.29 C795.21,292.28 796.20,294.11 796.84,295.61 Z" fill="rgb(254,102,1)"/>
<path d="M 451.56 987.25 C432.40,949.20 411.11,908.62 389.65,869.27 C336.51,771.81 330.30,757.50 331.17,734.57 C331.35,729.85 331.27,726.00 331.00,726.01 C329.57,726.06 321.98,734.00 311.41,746.50 C304.90,754.20 291.91,768.20 282.54,777.62 L 265.50 794.73 L 233.50 808.29 C171.81,834.44 131.79,851.12 131.49,850.81 C131.33,850.64 129.82,846.00 128.14,840.50 C113.69,793.27 111.03,705.85 122.10,642.00 C132.84,580.06 152.32,518.05 194.98,410.00 C202.26,391.58 210.23,371.33 212.69,365.00 C230.22,320.04 236.43,306.15 244.04,294.94 C246.12,291.88 251.48,285.93 255.96,281.72 C262.88,275.21 266.11,273.08 277.30,267.62 C300.26,256.44 332.25,246.03 362.37,239.96 C407.83,230.78 474.90,226.24 548.18,227.38 C621.28,228.51 669.84,232.07 707.13,239.04 C752.94,247.61 781.45,265.24 795.99,294.00 C797.24,296.48 798.59,298.73 798.98,299.00 C801.16,300.53 812.26,333.27 815.43,347.50 C816.29,351.35 818.31,360.35 819.92,367.50 C821.53,374.65 824.02,386.12 825.46,393.00 C826.89,399.88 828.50,407.30 829.04,409.50 C829.94,413.15 835.67,442.51 839.43,462.75 C841.43,473.55 844.46,494.04 846.64,511.50 C849.09,531.18 849.13,583.11 846.70,601.16 C842.59,631.75 836.19,659.02 823.26,701.00 C820.81,708.97 818.15,717.75 817.34,720.50 C814.47,730.36 783.00,827.20 782.48,827.81 C782.18,828.16 719.89,808.34 708.57,804.30 C693.30,798.86 688.52,795.59 671.50,778.97 C651.21,759.17 646.81,755.74 648.98,761.44 C654.18,775.14 661.15,843.48 659.48,864.50 C659.10,869.31 659.47,878.87 660.42,888.50 C663.92,924.19 665.20,947.37 665.72,984.75 L 666.27 1024.00 L 648.24 1024.00 L 630.22 1024.00 L 628.08 1015.75 C622.37,993.69 609.68,958.85 597.57,932.00 L 592.84 921.50 L 604.67 897.72 L 616.49 873.95 L 613.03 867.27 C605.19,852.15 587.63,832.45 576.24,826.00 C572.85,824.08 570.16,822.19 570.28,821.81 C570.40,821.43 573.51,818.95 577.18,816.31 C592.03,805.61 619.15,783.60 624.21,778.14 C627.18,774.93 630.99,770.22 632.69,767.66 C634.91,764.30 638.79,760.98 646.64,755.74 C662.68,745.02 671.03,738.12 685.55,723.57 C719.90,689.16 742.52,646.81 751.84,599.50 C753.56,590.77 754.38,585.06 756.58,566.48 C757.00,562.93 757.57,562.20 761.56,560.08 C767.51,556.92 777.31,546.33 780.87,539.20 C788.82,523.31 791.49,508.08 790.72,483.01 C790.32,469.60 789.70,463.69 788.08,457.76 C785.82,449.45 783.10,443.00 781.86,443.00 C781.09,443.00 781.64,422.20 782.63,414.12 C783.04,410.76 784.16,408.67 787.45,405.12 C800.28,391.29 796.84,382.50 776.25,376.50 L 770.00 374.68 L 770.00 355.53 C770.00,312.32 763.52,289.73 746.71,274.37 C734.88,263.55 714.69,256.03 697.50,256.04 C677.33,256.04 657.59,261.20 610.18,278.86 C591.66,285.76 584.42,287.39 572.50,287.34 C560.09,287.30 552.90,285.60 520.83,275.13 C487.50,264.25 484.24,263.32 469.98,260.57 C432.23,253.28 405.75,255.36 385.00,267.25 C367.39,277.34 350.93,292.27 334.03,313.50 C330.53,317.90 326.83,322.40 325.81,323.50 C317.61,332.35 269.63,400.08 264.39,410.21 C263.61,411.71 260.00,417.57 256.36,423.22 C252.73,428.87 248.31,435.75 246.55,438.50 C241.93,445.72 225.06,473.26 220.06,481.74 L 215.79 488.97 L 216.96 499.24 C219.83,524.51 227.62,542.62 241.18,555.60 C248.43,562.54 253.72,565.85 263.28,569.45 C271.30,572.47 284.03,572.96 290.98,570.51 C293.31,569.69 295.56,569.23 295.99,569.49 C296.42,569.76 297.07,572.57 297.44,575.74 C300.47,601.52 307.11,624.42 317.98,646.50 C326.02,662.82 333.60,674.52 345.31,688.66 L 353.73 698.82 L 352.98 703.66 C352.56,706.32 351.91,712.10 351.53,716.50 L 350.84 724.50 L 357.17 730.06 C392.83,761.38 424.38,779.96 473.50,798.56 C477.35,800.01 492.88,805.46 508.00,810.66 C523.12,815.86 535.84,820.45 536.26,820.86 C536.67,821.28 534.20,824.76 530.76,828.61 C519.03,841.71 489.74,877.68 486.57,882.86 C485.98,883.84 491.68,890.20 506.75,905.36 L 527.76 926.50 L 526.46 940.54 C524.97,956.60 522.41,992.49 521.41,1011.25 L 520.73 1024.00 L 495.40 1024.00 L 470.07 1024.00 L 451.56 987.25 ZM 441.19 482.04 C425.23,477.72 414.55,468.40 407.88,453.00 C405.83,448.26 405.50,445.91 405.50,435.95 C405.50,424.61 405.57,424.26 409.26,416.79 C423.45,388.07 462.75,382.20 486.08,405.32 C498.18,417.30 502.57,433.28 498.14,449.23 C493.97,464.28 483.75,475.25 468.66,480.87 C460.13,484.04 450.16,484.47 441.19,482.04 ZM 466.40 462.94 C483.58,454.36 487.86,431.30 474.98,416.63 C469.88,410.82 462.80,407.61 455.00,407.55 C444.71,407.47 439.38,409.50 432.91,415.95 C425.88,422.96 423.53,429.16 424.23,438.88 C425.04,450.28 431.95,459.86 442.33,463.97 C449.32,466.74 459.68,466.30 466.40,462.94 ZM 660.05 479.97 C648.05,477.44 635.80,467.77 629.38,455.76 L 625.50 448.50 L 625.50 436.48 C625.50,424.95 625.63,424.20 628.72,417.98 C634.89,405.58 644.69,397.36 658.05,393.39 C665.58,391.16 679.62,391.89 687.34,394.92 C699.24,399.59 709.12,410.49 713.13,423.37 C714.86,428.95 715.16,431.77 714.71,438.37 C714.41,442.84 713.43,448.52 712.54,451.00 C708.55,462.10 696.91,474.02 686.09,478.07 C679.76,480.43 666.75,481.39 660.05,479.97 ZM 673.84 463.96 C679.48,461.47 684.26,457.04 687.84,451.00 C690.19,447.02 690.50,445.46 690.50,437.50 C690.49,430.60 690.05,427.68 688.61,425.00 C683.18,414.92 675.13,409.18 665.11,408.28 C653.27,407.20 642.32,412.86 636.60,423.00 C633.80,427.96 633.50,429.33 633.51,437.00 C633.52,443.81 633.96,446.32 635.71,449.62 C639.11,456.01 642.83,459.88 648.13,462.56 C657.71,467.42 665.09,467.82 673.84,463.96 ZM 276.19 167.01 C277.13,164.42 306.79,133.48 317.11,124.32 C381.18,67.44 440.60,44.20 516.70,46.28 C528.14,46.60 543.12,47.56 550.00,48.43 C615.03,56.63 677.51,83.49 728.00,124.96 C745.53,139.36 770.91,163.43 769.76,164.57 C769.56,164.77 764.63,162.97 758.81,160.56 C708.05,139.58 651.35,127.83 582.00,123.91 C558.43,122.58 484.57,123.22 465.00,124.93 C413.13,129.46 384.95,133.79 349.72,142.63 C328.47,147.96 300.00,157.24 285.94,163.43 C280.41,165.86 276.02,167.47 276.19,167.01 Z" fill="rgb(253,235,212)"/>
</g>
</svg>